<svg width="61" height="62" viewBox="0 0 61 62" fill="none" xmlns="http://www.w3.org/2000/svg">
<path d="M24.5324 57.2028C13.0261 56.3864 3.86284 46.4244 3.10932 33.9188C2.96357 31.4725 2.96357 28.9378 3.10932 26.4915C3.86284 13.9889 13.0261 4.03282 24.5324 3.21051C28.5065 2.92983 32.4936 2.92983 36.4677 3.21051C47.974 4.02987 57.1372 13.9889 57.8907 26.4945C58.0364 28.9678 58.0364 31.4485 57.8907 33.9218C57.6157 38.4754 55.7374 42.693 53.5236 46.2534C52.2393 48.7439 53.0864 51.8533 54.4257 54.5737C55.3882 56.5337 55.8722 57.5122 55.4844 58.2196C55.0994 58.927 54.2331 58.9505 52.5034 58.9947C49.0795 59.0832 46.7722 58.0457 44.9407 56.5986C43.9039 55.7763 43.3841 55.3666 43.0266 55.3194C42.6691 55.2723 41.9623 55.5847 40.5543 56.2036C39.2893 56.7636 37.818 57.1085 36.4704 57.2057C32.5516 57.4828 28.4567 57.4828 24.5296 57.2057" fill="#1E90D2"/>
<path d="M24.5324 57.2028C13.0261 56.3864 3.86284 46.4244 3.10932 33.9188C2.96357 31.4725 2.96357 28.9378 3.10932 26.4915C3.86284 13.9889 13.0261 4.03282 24.5324 3.21051C28.5065 2.92983 32.4936 2.92983 36.4677 3.21051C47.974 4.02987 57.1372 13.9889 57.8907 26.4945C58.0364 28.9678 58.0364 31.4485 57.8907 33.9218C57.6157 38.4754 55.7374 42.693 53.5236 46.2534C52.2393 48.7439 53.0864 51.8533 54.4257 54.5737C55.3882 56.5337 55.8722 57.5122 55.4844 58.2196C55.0994 58.927 54.2331 58.9505 52.5034 58.9947C49.0795 59.0832 46.7722 58.0457 44.9407 56.5986C43.9039 55.7763 43.3841 55.3666 43.0266 55.3194C42.6691 55.2723 41.9623 55.5847 40.5543 56.2036C39.2893 56.7636 37.818 57.1085 36.4704 57.2057C32.5516 57.4828 28.4567 57.4828 24.5296 57.2057" stroke="#333333" stroke-width="5" stroke-linecap="round" stroke-linejoin="round"/>
<path d="M16.75 38.1429L22.2904 21.5649C22.4295 21.1511 22.6953 20.7915 23.0505 20.5366C23.4056 20.2818 23.832 20.1447 24.2695 20.1447C24.707 20.1447 25.1334 20.2818 25.4886 20.5366C25.8437 20.7915 26.1096 21.1511 26.2487 21.5649L31.7891 38.1429M40.8125 20.1429V38.1429M19.7578 32.1429H28.7812" stroke="white" stroke-width="5" stroke-linecap="round" stroke-linejoin="round"/>
</svg>
