<svg width="30" height="30" viewBox="0 0 30 30" fill="none" xmlns="http://www.w3.org/2000/svg">
<g id="&#240;&#159;&#166;&#134; icon &#34;Doctor&#34;">
<path id="Vector" d="M9.05692 19.0255C9.05576 19.0243 9.05519 19.0237 9.05519 19.0237M29 25.3517V29H1V25.3517C1 24.2026 1.87652 22.9084 3.52231 21.7076C5.06181 20.5844 7.10779 19.6721 9.15022 19.1709C9.15961 19.1877 9.16949 19.2062 9.18003 19.2262C9.20268 19.2693 9.225 19.3138 9.25028 19.3641L9.25333 19.3702C9.27655 19.4164 9.30324 19.4698 9.33008 19.5209L9.56166 19.9607H10.0588H13.4056C14.1644 19.9605 14.5347 19.9606 14.9094 19.9607C15.2756 19.9608 15.6461 19.9609 16.3877 19.9607H19.7347H20.2318L20.4634 19.5209C20.5298 19.3948 20.635 19.2422 20.7359 19.1451C20.7364 19.1446 20.7369 19.1442 20.7373 19.1437C22.8169 19.6386 24.9099 20.5638 26.4777 21.7076C28.1235 22.9084 29 24.2026 29 25.3517Z" stroke="#104C70" stroke-width="2"/>
<g id="Vector_2">
<mask id="path-2-inside-1_130_1326" fill="white">
<path fill-rule="evenodd" clip-rule="evenodd" d="M8.41175 25.718C8.85514 25.718 9.23528 25.3552 9.23528 24.8824C9.23528 24.4095 8.85514 24.0467 8.41175 24.0467C7.96836 24.0467 7.58822 24.4095 7.58822 24.8824C7.58822 25.3552 7.96836 25.718 8.41175 25.718ZM8.41175 27.353C9.77626 27.353 10.8823 26.2469 10.8823 24.8824C10.8823 23.5179 9.77626 22.4118 8.41175 22.4118C7.04724 22.4118 5.94116 23.5179 5.94116 24.8824C5.94116 26.2469 7.04724 27.353 8.41175 27.353Z"/>
</mask>
<path d="M8.41175 27.718C9.95143 27.718 11.2353 26.4681 11.2353 24.8824H7.23528C7.23528 24.2424 7.75885 23.718 8.41175 23.718V27.718ZM11.2353 24.8824C11.2353 23.2967 9.95143 22.0467 8.41175 22.0467V26.0467C7.75885 26.0467 7.23528 25.5223 7.23528 24.8824H11.2353ZM8.41175 22.0467C6.87207 22.0467 5.58822 23.2967 5.58822 24.8824H9.58822C9.58822 25.5223 9.06465 26.0467 8.41175 26.0467V22.0467ZM5.58822 24.8824C5.58822 26.4681 6.87207 27.718 8.41175 27.718V23.718C9.06465 23.718 9.58822 24.2424 9.58822 24.8824H5.58822ZM8.41175 29.353C10.8808 29.353 12.8823 27.3514 12.8823 24.8824H8.88234C8.88234 25.1423 8.67169 25.353 8.41175 25.353V29.353ZM12.8823 24.8824C12.8823 22.4133 10.8808 20.4118 8.41175 20.4118V24.4118C8.67169 24.4118 8.88234 24.6224 8.88234 24.8824H12.8823ZM8.41175 20.4118C5.94267 20.4118 3.94116 22.4133 3.94116 24.8824H7.94116C7.94116 24.6224 8.15181 24.4118 8.41175 24.4118V20.4118ZM3.94116 24.8824C3.94116 27.3514 5.94267 29.353 8.41175 29.353V25.353C8.15181 25.353 7.94116 25.1423 7.94116 24.8824H3.94116Z" fill="#104C70" mask="url(#path-2-inside-1_130_1326)"/>
</g>
<g id="Group">
<path id="Vector_3" d="M21.5883 26.5294H19.9412V24.8823L20.7648 23.2353H24.0589L24.8824 24.8823V26.5294H23.2353" stroke="#104C70" stroke-width="2" stroke-linejoin="round"/>
<path id="Vector_4" d="M22.4118 23.2353C22.8236 22.6862 23.2353 20.3529 22.8236 19.5294" stroke="#104C70" stroke-width="2"/>
<path id="Vector_5" d="M8.17064 23.2353C7.75888 22.6862 7.34711 20.3529 7.75888 19.5294" stroke="#104C70" stroke-width="2"/>
<path id="Vector_6" d="M22.4118 8.41176C22.4118 12.5069 19.0952 15.8235 15 15.8235C10.9049 15.8235 7.58826 12.5069 7.58826 8.41176C7.58826 4.3166 10.9049 1 15 1C19.0952 1 22.4118 4.3166 22.4118 8.41176Z" stroke="#104C70" stroke-width="2"/>
</g>
</g>
</svg>
