<svg xmlns="http://www.w3.org/2000/svg" width="35" height="36" viewBox="0 0 35 36" fill="none">
<path d="M17.5002 31.6865V30.2281H26.8116C27.0732 30.2281 27.288 30.1435 27.4562 29.9744C27.6244 29.8072 27.7085 29.5923 27.7085 29.3298V28.2083H23.2212V19.2338H27.7085V16.5417C27.7085 13.7222 26.712 11.316 24.7189 9.32292C22.7259 7.32986 20.3196 6.33333 17.5002 6.33333C14.6807 6.33333 12.2745 7.32986 10.2814 9.32292C8.28836 11.316 7.29183 13.7222 7.29183 16.5417V19.2338H11.7791V28.2083H8.19016C7.51836 28.2083 6.95787 27.9838 6.5087 27.5346C6.05954 27.0854 5.83447 26.5244 5.8335 25.8517V16.5417C5.8335 14.9297 6.1378 13.4165 6.74641 12.0019C7.35502 10.5873 8.18919 9.35014 9.24891 8.29042C10.3086 7.23069 11.5463 6.39653 12.9618 5.78792C14.3774 5.17931 15.8902 4.875 17.5002 4.875C19.1102 4.875 20.6234 5.17931 22.04 5.78792C23.4565 6.39653 24.6936 7.23069 25.7514 8.29042C26.8092 9.35014 27.6434 10.5878 28.2539 12.0033C28.8645 13.4189 29.1688 14.9317 29.1668 16.5417V29.3313C29.1668 30.0021 28.9422 30.5621 28.4931 31.0113C28.0429 31.4614 27.4825 31.6865 26.8116 31.6865H17.5002ZM8.19016 26.75H10.3208V20.6921H7.29183V25.8531C7.29183 26.1147 7.37593 26.3295 7.54412 26.4977C7.71232 26.6659 7.92766 26.75 8.19016 26.75ZM24.6795 26.75H27.7085V20.6921H24.6795V26.75ZM8.19016 20.6921H7.29183H10.3208H8.19016Z" fill="#104C70"/>
</svg>