<svg width="53" height="53" viewBox="0 0 53 53" fill="none" xmlns="http://www.w3.org/2000/svg">
<g id="Icon">
<g id="Group">
<path id="Vector" d="M8.75728 5.87897C10.3808 5.87897 11.6968 4.56292 11.6968 2.93948C11.6968 1.31605 10.3808 0 8.75728 0C7.66923 0 6.71934 0.59113 6.2111 1.46974H5.8178C3.38265 1.46974 1.40857 3.44383 1.40857 5.87897V19.1067H4.34805V5.87897C4.34805 5.06726 5.00609 4.40923 5.8178 4.40923H6.2111C6.71934 5.28784 7.66923 5.87897 8.75728 5.87897Z" fill="#104C70"/>
<path id="Vector_2" fill-rule="evenodd" clip-rule="evenodd" d="M6.05324 19.1067H4.34804H1.40856C0.596848 19.1067 -0.0680777 19.7661 0.00558582 20.5745C0.347286 24.3241 1.99011 27.8546 4.67412 30.5386C6.64231 32.5067 9.06562 33.915 11.6968 34.6609V38.2133C11.6968 40.1334 12.924 41.7667 14.6368 42.3718C14.6994 48.203 19.446 52.9107 25.2919 52.9107C31.1769 52.9107 35.9475 48.1401 35.9475 42.2551V36.3761C35.9475 33.3321 38.4151 30.8646 41.459 30.8646C44.503 30.8646 46.9706 33.3321 46.9706 36.3761V39.9339C45.258 40.5392 44.0311 42.1725 44.0311 44.0923C44.0311 46.5275 46.0051 48.5015 48.4403 48.5015C50.8755 48.5015 52.8495 46.5275 52.8495 44.0923C52.8495 42.1725 51.6226 40.5392 49.9101 39.9339V36.3761C49.9101 31.7088 46.1264 27.9251 41.459 27.9251C36.7917 27.9251 33.008 31.7088 33.008 36.3761V42.2551C33.008 46.5166 29.5534 49.9712 25.2919 49.9712C21.0692 49.9712 17.6388 46.5792 17.5766 42.3714C19.2887 41.7658 20.5152 40.1328 20.5152 38.2133V34.6609C23.1463 33.915 25.5698 32.5067 27.5379 30.5386C30.222 27.8546 31.8647 24.3241 32.2064 20.5745C32.2802 19.7661 31.6151 19.1067 30.8034 19.1067V5.87897C30.8034 3.44383 28.8294 1.46974 26.3942 1.46974H26.0009C25.4926 0.59113 24.5427 0 23.4547 0C21.8312 0 20.5152 1.31605 20.5152 2.93948C20.5152 4.56292 21.8312 5.87897 23.4547 5.87897C24.5427 5.87897 25.4926 5.28784 26.0009 4.40923H26.3942C27.2059 4.40923 27.8639 5.06726 27.8639 5.87897V19.1067H26.1589C25.3471 19.1067 24.7019 19.7694 24.5636 20.5693C24.2638 22.3028 23.4359 23.9152 22.1751 25.1758C20.5656 26.7855 18.3825 27.6898 16.106 27.6898C13.8296 27.6898 11.6465 26.7855 10.0368 25.1758C8.77623 23.9152 7.94818 22.3028 7.64835 20.5693C7.51005 19.7694 6.86483 19.1067 6.05324 19.1067ZM27.2474 22.0461H29.003C28.4537 24.4559 27.235 26.6845 25.4594 28.4601C22.9788 30.9407 19.6143 32.3343 16.106 32.3343C12.5979 32.3343 9.23332 30.9407 6.75269 28.4601C4.97705 26.6845 3.75834 24.4559 3.20902 22.0461H4.96464C5.4801 23.9996 6.50504 25.801 7.95832 27.2543C10.1193 29.4153 13.0501 30.6293 16.106 30.6293C19.162 30.6293 22.0928 29.4153 24.2538 27.2543C25.7071 25.801 26.7319 23.9996 27.2474 22.0461ZM48.4403 42.6225C49.2521 42.6225 49.9101 43.2805 49.9101 44.0923C49.9101 44.904 49.2521 45.562 48.4403 45.562C47.6286 45.562 46.9706 44.904 46.9706 44.0923C46.9706 43.2805 47.6286 42.6225 48.4403 42.6225ZM17.5757 35.2738V38.2133C17.5757 39.025 16.9177 39.683 16.106 39.683C15.2942 39.683 14.6362 39.025 14.6362 38.2133V35.2738H17.5757Z" fill="#104C70"/>
</g>
</g>
</svg>
