
<svg xmlns="http://www.w3.org/2000/svg" width="24" height="24" viewBox="0 0 24 24" fill="none">
  <path d="M6.25001 7C6.25001 5.47501 6.85581 4.01247 7.93415 2.93414C9.01248 1.8558 10.475 1.25 12 1.25C13.525 1.25 14.9875 1.8558 16.0659 2.93414C17.1442 4.01247 17.75 5.47501 17.75 7C17.75 8.52499 17.1442 9.98753 16.0659 11.0659C14.9875 12.1442 13.525 12.75 12 12.75C10.475 12.75 9.01248 12.1442 7.93415 11.0659C6.85581 9.98753 6.25001 8.52499 6.25001 7ZM11.798 14.261C11.8411 14.2545 11.8845 14.2508 11.928 14.25H12.072C12.116 14.25 12.1593 14.2537 12.202 14.261L19.497 15.544L19.535 15.552C20.879 15.862 22.323 16.715 22.604 18.372L22.608 18.401L22.722 19.278V19.28C22.986 21.289 21.393 22.75 19.512 22.75C19.4705 22.7492 19.4291 22.7459 19.388 22.74H4.48801C2.60701 22.74 1.01301 21.278 1.27801 19.268L1.39201 18.399L1.39701 18.369C1.67701 16.742 3.13301 15.841 4.47401 15.55L4.50301 15.544L11.798 14.261Z" fill="#104c70"/>
</svg>