<svg xmlns="http://www.w3.org/2000/svg" width="24" height="26" viewBox="0 0 24 26" fill="none">
  <path d="M3.97684 3.65587C4.71409 3.65587 5.31172 3.05822 5.31172 2.32099C5.31172 1.58376 4.71409 0.986115 3.97684 0.986115C3.48274 0.986115 3.05137 1.25456 2.82057 1.65355H2.64196C1.53612 1.65355 0.639648 2.55002 0.639648 3.65587V9.66282H1.97453V3.65587C1.97453 3.28726 2.27335 2.98843 2.64196 2.98843H2.82057C3.05137 3.38742 3.48274 3.65587 3.97684 3.65587Z" fill="#104C70"/>
  <path fill-rule="evenodd" clip-rule="evenodd" d="M2.74889 9.66282H1.97453H0.639653C0.27104 9.66282 -0.0309154 9.96229 0.00253663 10.3294C0.157709 12.0322 0.903745 13.6354 2.12261 14.8543C3.0164 15.7481 4.11687 16.3876 5.31172 16.7263V18.3395C5.31172 19.2115 5.86903 19.9532 6.64687 20.228C6.6753 22.876 8.83079 25.0139 11.4855 25.0139C14.158 25.0139 16.3245 22.8475 16.3245 20.175V17.5052C16.3245 16.1229 17.445 15.0023 18.8274 15.0023C20.2097 15.0023 21.3302 16.1229 21.3302 17.5052V19.1209C20.5525 19.3957 19.9954 20.1375 19.9954 21.0093C19.9954 22.1151 20.8918 23.0116 21.9977 23.0116C23.1036 23.0116 24 22.1151 24 21.0093C24 20.1375 23.4428 19.3957 22.6651 19.1209V17.5052C22.6651 15.3857 20.9469 13.6674 18.8274 13.6674C16.7078 13.6674 14.9896 15.3857 14.9896 17.5052V20.175C14.9896 22.1102 13.4208 23.679 11.4855 23.679C9.56791 23.679 8.01011 22.1386 7.98188 20.2278C8.75938 19.9528 9.31635 19.2112 9.31635 18.3395V16.7263C10.5112 16.3876 11.6117 15.7481 12.5055 14.8543C13.7244 13.6354 14.4704 12.0322 14.6256 10.3294C14.6591 9.96229 14.357 9.66282 13.9884 9.66282V3.65587C13.9884 2.55002 13.092 1.65355 11.9861 1.65355H11.8075C11.5767 1.25456 11.1453 0.986115 10.6512 0.986115C9.91398 0.986115 9.31635 1.58376 9.31635 2.32099C9.31635 3.05822 9.91398 3.65587 10.6512 3.65587C11.1453 3.65587 11.5767 3.38742 11.8075 2.98843H11.9861C12.3547 2.98843 12.6535 3.28726 12.6535 3.65587V9.66282H11.8793C11.5106 9.66282 11.2176 9.96376 11.1548 10.327C11.0187 11.1142 10.6427 11.8465 10.0702 12.4189C9.33925 13.1499 8.34783 13.5606 7.31404 13.5606C6.28031 13.5606 5.2889 13.1499 4.55792 12.4189C3.98546 11.8465 3.60942 11.1142 3.47326 10.327C3.41046 9.96376 3.11745 9.66282 2.74889 9.66282ZM12.3736 10.9977H13.1708C12.9214 12.092 12.3679 13.1041 11.5616 13.9104C10.4351 15.0369 8.90721 15.6698 7.31404 15.6698C5.72093 15.6698 4.19303 15.0369 3.06653 13.9104C2.26017 13.1041 1.70673 12.092 1.45728 10.9977H2.25454C2.48862 11.8848 2.95406 12.7029 3.61403 13.3628C4.59536 14.3442 5.9263 14.8955 7.31404 14.8955C8.70184 14.8955 10.0328 14.3442 11.0141 13.3628C11.6741 12.7029 12.1395 11.8848 12.3736 10.9977ZM21.9977 20.3418C22.3663 20.3418 22.6651 20.6406 22.6651 21.0093C22.6651 21.3779 22.3663 21.6767 21.9977 21.6767C21.6291 21.6767 21.3302 21.3779 21.3302 21.0093C21.3302 20.6406 21.6291 20.3418 21.9977 20.3418ZM7.98148 17.0046V18.3395C7.98148 18.7081 7.68266 19.007 7.31404 19.007C6.94541 19.007 6.6466 18.7081 6.6466 18.3395V17.0046H7.98148Z" fill="#104C70"/>
</svg>