<svg xmlns="http://www.w3.org/2000/svg" width="24" height="24" viewBox="0 0 24 24" fill="none">
  <path d="M19.7779 4.22201C20.1529 4.59707 20.3635 5.10568 20.3635 5.63601C20.3635 6.16634 20.1529 6.67495 19.7779 7.05001L16.9499 9.88001L14.1199 7.05001L16.9489 4.22201C17.324 3.84707 17.8326 3.63644 18.3629 3.63644C18.8932 3.63644 19.4029 3.84707 19.7779 4.22201ZM21.1909 2.80701C20.4408 2.05713 19.4236 1.63586 18.3629 1.63586C17.3023 1.63586 16.285 2.05713 15.5349 2.80701L12.7059 5.63601L12.3519 5.28301C12.2597 5.1875 12.1493 5.11132 12.0273 5.05891C11.9053 5.0065 11.7741 4.97891 11.6413 4.97776C11.5085 4.97661 11.3769 5.00191 11.254 5.05219C11.1311 5.10247 11.0194 5.17672 10.9255 5.27062C10.8316 5.36451 10.7574 5.47616 10.7071 5.59906C10.6568 5.72195 10.6315 5.85363 10.6327 5.98641C10.6338 6.11919 10.6614 6.25041 10.7138 6.37241C10.7662 6.49442 10.8424 6.60476 10.9379 6.69701L11.2919 7.05001L5.07692 13.265C4.51847 13.8234 4.13781 14.5346 3.98292 15.309L3.63292 17.063C3.55547 17.4502 3.36514 17.8058 3.08592 18.085L2.09992 19.071C1.91244 19.2585 1.80713 19.5128 1.80713 19.778C1.80713 20.0432 1.91244 20.2975 2.09992 20.485L3.51492 21.9C3.70244 22.0875 3.95675 22.1928 4.22192 22.1928C4.48708 22.1928 4.74139 22.0875 4.92892 21.9L5.91492 20.914C6.19411 20.6348 6.54972 20.4445 6.93692 20.367L8.69092 20.016C9.4653 19.8611 10.1765 19.4805 10.7349 18.922L16.9499 12.707L17.3029 13.061C17.4904 13.2487 17.7448 13.3541 18.0101 13.3542C18.2753 13.3543 18.5298 13.249 18.7174 13.0615C18.9051 12.874 19.0105 12.6196 19.0106 12.3544C19.0107 12.0891 18.9054 11.8347 18.7179 11.647L18.3639 11.293L21.1919 8.46401C21.5634 8.09257 21.858 7.65161 22.0591 7.16629C22.2601 6.68098 22.3636 6.16081 22.3636 5.63551C22.3636 5.11021 22.2601 4.59004 22.0591 4.10473C21.858 3.61941 21.5624 3.17845 21.1909 2.80701ZM12.7069 8.46501L15.5359 11.293L9.32092 17.508C9.04172 17.7872 8.68611 17.9776 8.29891 18.055L6.54492 18.405C5.77005 18.56 5.05846 18.941 4.49992 19.5C5.05836 18.9416 5.43902 18.2304 5.59392 17.456L5.94392 15.701C6.02136 15.3138 6.21169 14.9582 6.49092 14.679L12.7069 8.46501Z" fill="#104C70"/>
</svg>