<svg width="14" height="14" viewBox="0 0 14 14" fill="none" xmlns="http://www.w3.org/2000/svg">
<rect width="14" height="14" fill="#CCCCCC"/>
<g id="Footer">
<g id="Footer-bot">
<rect width="1440" height="80" transform="translate(-736 -33)" fill="white"/>
<g id="Socials">
<g id="Instagram">
<g id="Rectangle 6076" filter="url(#filter0_d_0_1)">
<rect x="-11" y="25" width="36" height="36" rx="18" transform="rotate(-90 -11 25)" fill="white"/>
</g>
<g id="Group">
<path id="Vector" d="M0 6.99987C0 8.901 0.00806517 9.13939 0.0421181 9.88603C0.0761086 10.6311 0.19446 11.14 0.367476 11.5852C0.546369 12.0456 0.78574 12.4359 1.17489 12.8251C1.56404 13.2143 1.95446 13.4536 2.41478 13.6325C2.86003 13.8056 3.36889 13.9239 4.11397 13.9579C4.86061 13.992 5.099 14 7.00013 14C8.90122 14 9.13961 13.992 9.88626 13.9579C10.6313 13.9239 11.1402 13.8056 11.5854 13.6325C12.0458 13.4536 12.4361 13.2142 12.8253 12.8251C13.2145 12.4359 13.4539 12.0456 13.6328 11.5852C13.8058 11.14 13.9241 10.6311 13.9581 9.88603C13.9922 9.13939 14.0002 8.901 14.0002 6.99987C14.0002 5.09878 13.9922 4.86039 13.9581 4.11374C13.9241 3.36866 13.8058 2.8598 13.6328 2.41455C13.4539 1.95423 13.2145 1.56385 12.8253 1.17466C12.4361 0.785513 12.0458 0.546141 11.5854 0.367248C11.1402 0.194232 10.6313 0.0758806 9.88626 0.0418902C9.13961 0.00783724 8.90122 -0.000227854 7.00013 -0.000227854C5.099 -0.000227854 4.86061 0.00783724 4.11397 0.0418902C3.36889 0.0758806 2.86003 0.194232 2.41478 0.367248C1.95446 0.546141 1.56404 0.785513 1.17489 1.17466C0.78574 1.56385 0.546369 1.95423 0.367476 2.41455C0.19446 2.8598 0.0761086 3.36866 0.0421181 4.11374C0.00806517 4.86039 0 5.09878 0 6.99987ZM1.26127 6.99987C1.26127 5.13079 1.26842 4.90938 1.3021 4.17124C1.33321 3.48872 1.44725 3.11808 1.54312 2.87143C1.67012 2.54466 1.82179 2.31148 2.06675 2.06654C2.3117 1.82156 2.54491 1.66989 2.87164 1.54289C3.11831 1.44702 3.48897 1.33299 4.17147 1.30187C4.90961 1.26819 5.13101 1.26104 7.00011 1.26104C8.86921 1.26104 9.09062 1.26819 9.82876 1.30187C10.5113 1.33299 10.8819 1.44702 11.1286 1.54289C11.4553 1.66989 11.6885 1.82156 11.9335 2.06654C12.1784 2.31148 12.3301 2.54468 12.4571 2.87141C12.553 3.11808 12.667 3.48874 12.6981 4.17124C12.7318 4.90926 12.739 5.13064 12.739 6.99989C12.739 8.86913 12.7318 9.09048 12.6981 9.82853C12.667 10.5111 12.553 10.8817 12.4571 11.1283C12.3301 11.4551 12.1784 11.6883 11.9335 11.9332C11.6885 12.1782 11.4553 12.3299 11.1286 12.4569C10.8819 12.5527 10.5113 12.6668 9.82876 12.6979C9.09062 12.7316 8.86921 12.7387 7.00011 12.7387C5.13101 12.7387 4.90961 12.7316 4.17147 12.6979C3.48895 12.6668 3.11831 12.5527 2.87166 12.4569C2.54489 12.3299 2.3117 12.1782 2.06677 11.9333C1.82179 11.6883 1.67012 11.4551 1.54312 11.1284C1.44725 10.8817 1.33321 10.511 1.3021 9.82853C1.26842 9.09039 1.26127 8.86899 1.26127 6.99989" fill="#333333"/>
<path id="Vector_2" d="M9.33294 6.9981C9.33294 8.28682 8.28826 9.3315 6.99958 9.3315C5.71086 9.3315 4.66618 8.28682 4.66618 6.9981C4.66618 5.70942 5.71086 4.66474 6.99958 4.66474C8.28826 4.66474 9.33294 5.70942 9.33294 6.9981ZM3.40491 6.9981C3.40491 8.98341 5.01427 10.5928 6.99958 10.5928C8.98484 10.5928 10.5942 8.98341 10.5942 6.9981C10.5942 5.01284 8.98484 3.40347 6.99958 3.40347C5.01427 3.40347 3.40491 5.01284 3.40491 6.9981M3.26288 2.42142C3.72683 2.42142 4.10289 2.79752 4.10289 3.26145C4.10289 3.72535 3.72683 4.10145 3.26288 4.10145C2.79896 4.10145 2.42285 3.72535 2.42285 3.26145C2.42285 2.79752 2.79896 2.42142 3.26288 2.42142" fill="#333333"/>
</g>
</g>
</g>
</g>
</g>
<defs>
<filter id="filter0_d_0_1" x="-21" y="-16" width="56" height="56" filterUnits="userSpaceOnUse" color-interpolation-filters="sRGB">
<feFlood flood-opacity="0" result="BackgroundImageFix"/>
<feColorMatrix in="SourceAlpha" type="matrix" values="0 0 0 0 0 0 0 0 0 0 0 0 0 0 0 0 0 0 127 0" result="hardAlpha"/>
<feOffset dy="5"/>
<feGaussianBlur stdDeviation="5"/>
<feComposite in2="hardAlpha" operator="out"/>
<feColorMatrix type="matrix" values="0 0 0 0 0 0 0 0 0 0 0 0 0 0 0 0 0 0 0.55 0"/>
<feBlend mode="normal" in2="BackgroundImageFix" result="effect1_dropShadow_0_1"/>
<feBlend mode="normal" in="SourceGraphic" in2="effect1_dropShadow_0_1" result="shape"/>
</filter>
</defs>
</svg>
