<svg width="23" height="24" viewBox="0 0 23 24" fill="none" xmlns="http://www.w3.org/2000/svg">
<g id="Vector">
<path id="Vector_2" d="M13.9381 5.53595C14.9149 5.72652 15.8125 6.20421 16.5162 6.90789C17.2199 7.61156 17.6976 8.50921 17.8881 9.48595M13.9381 1.53595C15.9674 1.76139 17.8597 2.67012 19.3044 4.11296C20.749 5.55579 21.6601 7.44696 21.8881 9.47595M20.8881 17.4559V20.4559C20.8892 20.7345 20.8322 21.0101 20.7206 21.2653C20.6091 21.5205 20.4454 21.7495 20.2402 21.9378C20.035 22.1261 19.7927 22.2694 19.5289 22.3587C19.265 22.4479 18.9855 22.481 18.7081 22.4559C15.631 22.1216 12.6751 21.0701 10.0781 19.386C7.66194 17.8506 5.61345 15.8021 4.07812 13.386C2.38809 10.7772 1.33636 7.80694 1.00812 4.71595C0.983127 4.43942 1.01599 4.16071 1.10462 3.89757C1.19324 3.63444 1.33569 3.39264 1.52288 3.18757C1.71008 2.9825 1.93792 2.81866 2.19191 2.70647C2.44589 2.59428 2.72046 2.53621 2.99812 2.53595H5.99812C6.48342 2.53117 6.95391 2.70303 7.32188 3.01948C7.68985 3.33594 7.93019 3.7754 7.99812 4.25595C8.12474 5.21602 8.35957 6.15868 8.69812 7.06595C8.83266 7.42387 8.86178 7.81286 8.78202 8.18683C8.70227 8.5608 8.51698 8.90406 8.24812 9.17595L6.97812 10.4459C8.40167 12.9495 10.4746 15.0224 12.9781 16.4459L14.2481 15.176C14.52 14.9071 14.8633 14.7218 15.2372 14.642C15.6112 14.5623 16.0002 14.5914 16.3581 14.7259C17.2654 15.0645 18.2081 15.2993 19.1681 15.426C19.6539 15.4945 20.0975 15.7392 20.4146 16.1134C20.7318 16.4877 20.9003 16.9655 20.8881 17.4559Z" stroke="white" stroke-width="2" stroke-linecap="round" stroke-linejoin="round"/>
</g>
</svg>
