<svg xmlns="http://www.w3.org/2000/svg" width="24" height="24" viewBox="0 0 24 24" fill="none">
  <g clip-path="url(#clip0_336_3711)">
    <path d="M17.1231 9.02987L12.3071 4.21387L4.12111 12.3999C3.99442 12.5262 3.8939 12.6763 3.82532 12.8415C3.75674 13.0068 3.72144 13.184 3.72144 13.3629C3.72144 13.5418 3.75674 13.7189 3.82532 13.8842C3.8939 14.0494 3.99442 14.1995 4.12111 14.3259L6.68911 16.8999C6.82844 17.0396 6.99397 17.1504 7.17621 17.226C7.35844 17.3016 7.55381 17.3405 7.75111 17.3405C7.94841 17.3405 8.14377 17.3016 8.32601 17.226C8.50824 17.1504 8.67377 17.0396 8.81311 16.8999" stroke="#104C70" stroke-width="1.5" stroke-linecap="round" stroke-linejoin="round"/>
    <path d="M0.75 20.5868L3.158 18.1788M10.863 2.76977L12.307 4.21377M13.752 5.65877L17.123 2.28777M19.049 4.21377L15.678 7.58477M15.678 0.842773L20.494 5.65877M17.25 14.9068V19.4068M15 17.1568H19.5M4.602 14.8078L2.194 17.2158L4.12 19.1418L6.528 16.7338L4.602 14.8078ZM23.25 15.6568C23.2532 17.4032 22.6603 19.0985 21.5693 20.4622C20.4783 21.8259 18.9545 22.7765 17.25 23.1568C15.5455 22.7765 14.0217 21.8259 12.9307 20.4622C11.8397 19.0985 11.2468 17.4032 11.25 15.6568V13.4068C11.25 13.0089 11.408 12.6274 11.6893 12.3461C11.9706 12.0648 12.3522 11.9068 12.75 11.9068H21.75C22.1478 11.9068 22.5294 12.0648 22.8107 12.3461C23.092 12.6274 23.25 13.0089 23.25 13.4068V15.6568Z" stroke="#104C70" stroke-width="1.5" stroke-linecap="round" stroke-linejoin="round"/>
  </g>
  <defs>
    <clipPath id="clip0_336_3711">
      <rect width="24" height="24" fill="white"/>
    </clipPath>
  </defs>
</svg>