<svg width="42" height="52" viewBox="0 0 42 52" fill="none" xmlns="http://www.w3.org/2000/svg">
<path id="Vector" d="M26.25 23.4H23.625V20.8C23.625 20.1104 23.3484 19.4491 22.8562 18.9615C22.3639 18.4739 21.6962 18.2 21 18.2C20.3038 18.2 19.6361 18.4739 19.1438 18.9615C18.6516 19.4491 18.375 20.1104 18.375 20.8V23.4H15.75C15.0538 23.4 14.3861 23.6739 13.8938 24.1615C13.4016 24.6491 13.125 25.3104 13.125 26C13.125 26.6895 13.4016 27.3508 13.8938 27.8384C14.3861 28.326 15.0538 28.5999 15.75 28.5999H18.375V31.1999C18.375 31.8895 18.6516 32.5508 19.1438 33.0384C19.6361 33.526 20.3038 33.7999 21 33.7999C21.6962 33.7999 22.3639 33.526 22.8562 33.0384C23.3484 32.5508 23.625 31.8895 23.625 31.1999V28.5999H26.25C26.9462 28.5999 27.6139 28.326 28.1062 27.8384C28.5984 27.3508 28.875 26.6895 28.875 26C28.875 25.3104 28.5984 24.6491 28.1062 24.1615C27.6139 23.6739 26.9462 23.4 26.25 23.4ZM41.031 4.28973C40.7272 4.04689 40.3729 3.8737 39.9935 3.78261C39.6141 3.69151 39.219 3.68478 38.8367 3.7629C36.0313 4.35019 33.1341 4.36083 30.3244 3.79416C27.5147 3.22748 24.8523 2.09556 22.5022 0.468469C22.0618 0.163535 21.5374 0 21 0C20.4626 0 19.9382 0.163535 19.4978 0.468469C17.148 2.09623 14.4857 3.22856 11.6759 3.79526C8.86605 4.36196 5.96867 4.35094 3.16334 3.7629C2.78116 3.68344 2.3859 3.68946 2.00638 3.78053C1.62685 3.8716 1.27263 4.04541 0.969543 4.28929C0.666453 4.53317 0.422136 4.84098 0.254405 5.19026C0.0866755 5.53955 -0.000238547 5.92151 4.91731e-07 6.30829V25.6965C0.00387672 29.4204 0.903163 33.0899 2.62342 36.4011C4.34368 39.7124 6.83544 42.5703 9.89244 44.7381L19.4749 51.5163C19.92 51.8309 20.4533 52 21.0001 52C21.547 52 22.0802 51.8309 22.5254 51.5163L32.1077 44.737C35.1648 42.5695 37.6566 39.7119 39.3768 36.4008C41.0971 33.0897 41.9963 29.4203 42 25.6965V6.30837C42 5.92174 41.913 5.53996 41.7454 5.19078C41.5778 4.84161 41.3338 4.5338 41.031 4.28973ZM36.75 25.6965C36.7467 28.5926 36.0472 31.4463 34.7095 34.0214C33.3717 36.5966 31.4341 38.8193 29.057 40.5056L21 46.2045L12.943 40.5069C10.5659 38.8202 8.62841 36.5973 7.29068 34.0219C5.95295 31.4465 5.25344 28.5927 5.25 25.6965V9.31578C10.754 9.78959 16.268 8.52332 21 5.69888C25.732 8.52332 31.246 9.78959 36.75 9.31578V25.6965Z" fill="#104C70"/>
</svg>
