<svg width="58" height="58" viewBox="0 0 58 58" fill="none" xmlns="http://www.w3.org/2000/svg">
<g id="Icon">
<path id="Vector" fill-rule="evenodd" clip-rule="evenodd" d="M34.7778 6.70012C34.7778 4.60732 33.0811 2.91077 30.9884 2.91077H27.0116C24.9189 2.91077 23.2222 4.60732 23.2222 6.70012V7.44274C23.2222 8.67866 22.3928 9.75238 21.2513 10.2263C20.1094 10.7004 18.7799 10.5197 17.9057 9.64543L17.1064 8.84622C15.4239 7.16364 12.6959 7.16364 11.0133 8.84622L8.93542 10.9241C7.25288 12.6067 7.25288 15.3347 8.93542 17.0172L9.73466 17.8165C10.6089 18.6907 10.7896 20.0202 10.3155 21.1621C9.84161 22.3035 8.7679 23.133 7.532 23.133H6.78936C4.69656 23.133 3 24.8296 3 26.9223V30.8992C3 32.9919 4.69656 34.6885 6.78936 34.6885H7.96822C8.9453 34.6885 9.79657 35.3411 10.1514 36.2517C10.4924 37.1265 10.3299 38.1281 9.66588 38.7922L8.74612 39.712C7.16809 41.2899 7.16809 43.8483 8.74612 45.4265L11.5334 48.2137C12.9287 49.6091 15.191 49.6091 16.5863 48.2137L16.7149 48.0852C17.8011 46.999 19.4663 46.8155 20.8727 47.4335C22.2258 48.028 23.2222 49.3089 23.2222 50.7869V51.1214C23.2222 53.2141 24.9189 54.9108 27.0116 54.9108H30.9884C33.0811 54.9108 34.7778 53.2141 34.7778 51.1214V50.3787C34.7778 49.1428 35.6072 48.069 36.7486 47.5952C37.8906 47.1212 39.22 47.3017 40.0942 48.1762L40.3458 48.4278C41.623 49.705 43.6938 49.705 44.9709 48.4278L48.517 44.8817C49.7942 43.6045 49.7942 41.5338 48.517 40.2566L48.2654 40.005C47.391 39.1308 47.2104 37.8013 47.6845 36.6593C48.1582 35.5179 49.232 34.6885 50.4679 34.6885H51.2106C53.3034 34.6885 55 32.9919 55 30.8992V26.9223C55 24.8296 53.3034 23.133 51.2106 23.133H50.8761C49.3982 23.133 48.1172 22.1366 47.5227 20.7835C46.9048 19.377 47.0882 17.7119 48.1744 16.6256L48.303 16.4971C49.6983 15.1018 49.6983 12.8396 48.303 11.4443L45.5155 8.65688C43.9376 7.07888 41.3792 7.07888 39.8013 8.65688L38.8814 9.57665C38.2173 10.2406 37.2157 10.4032 36.341 10.0622C35.4304 9.70734 34.7778 8.85607 34.7778 7.87896V6.70012ZM29 37.5774C33.7866 37.5774 37.6667 33.6974 37.6667 28.9108C37.6667 24.1242 33.7866 20.2441 29 20.2441C24.2134 20.2441 20.3333 24.1242 20.3333 28.9108C20.3333 33.6974 24.2134 37.5774 29 37.5774Z" stroke="#104C70" stroke-width="5" stroke-linejoin="round"/>
</g>
</svg>
