<svg width="52" height="52" viewBox="0 0 52 52" fill="none" xmlns="http://www.w3.org/2000/svg">
<g id="Icon">
<path id="Vector" d="M18.3433 51.3255C16.6133 51.3239 14.9546 50.6362 13.7311 49.4132C12.5075 48.1902 11.819 46.5318 11.8166 44.8018V44.612C11.6177 44.6301 11.4189 44.6391 11.214 44.6391C9.24503 44.6367 7.35747 43.8533 5.96551 42.4608C4.57355 41.0682 3.7909 39.1804 3.7893 37.2114C3.78099 35.7663 4.20035 34.3509 4.9946 33.1436C3.53603 32.6379 2.27126 31.6903 1.37613 30.4326C0.481 29.1748 0 27.6694 0 26.1257C0 24.5819 0.481 23.0765 1.37613 21.8188C2.27126 20.5611 3.53603 19.6135 4.9946 19.1078C4.20035 17.9004 3.78099 16.4851 3.7893 15.0399C3.7909 13.071 4.57355 11.1831 5.96551 9.79059C7.35747 8.39806 9.24503 7.61464 11.214 7.61225C11.4158 7.61225 11.6147 7.61225 11.8166 7.63936V7.43748C11.8166 5.70649 12.5042 4.04639 13.7282 2.8224C14.9522 1.5984 16.6123 0.910767 18.3433 0.910767C20.0743 0.910767 21.7344 1.5984 22.9584 2.8224C24.1824 4.04639 24.87 5.70649 24.87 7.43748V44.8018C24.8668 46.5316 24.1781 48.1895 22.9547 49.4123C21.7313 50.6352 20.0731 51.3231 18.3433 51.3255ZM12.1179 43.9702C12.1979 43.9702 12.2745 44.0019 12.331 44.0584C12.3875 44.1149 12.4193 44.1916 12.4193 44.2715V44.8018C12.4193 45.5798 12.5725 46.3501 12.8702 47.0689C13.1679 47.7876 13.6043 48.4407 14.1544 48.9908C14.7045 49.5409 15.3575 49.9772 16.0763 50.2749C16.795 50.5727 17.5654 50.7259 18.3433 50.7259C19.1213 50.7259 19.8916 50.5727 20.6104 50.2749C21.3291 49.9772 21.9822 49.5409 22.5323 48.9908C23.0824 48.4407 23.5187 47.7876 23.8164 47.0689C24.1141 46.3501 24.2674 45.5798 24.2674 44.8018V7.43748C24.2674 6.65952 24.1141 5.88918 23.8164 5.17044C23.5187 4.4517 23.0824 3.79864 22.5323 3.24854C21.9822 2.69844 21.3291 2.26207 20.6104 1.96436C19.8916 1.66665 19.1213 1.51342 18.3433 1.51342C17.5654 1.51342 16.795 1.66665 16.0763 1.96436C15.3575 2.26207 14.7045 2.69844 14.1544 3.24854C13.6043 3.79864 13.1679 4.4517 12.8702 5.17044C12.5725 5.88918 12.4193 6.65952 12.4193 7.43748V7.96178C12.4197 8.00517 12.4107 8.04813 12.393 8.08774C12.3753 8.12735 12.3493 8.16267 12.3167 8.19128C12.284 8.21989 12.2456 8.24112 12.2041 8.25351C12.1625 8.26591 12.1187 8.26918 12.0757 8.26311C11.791 8.22574 11.5042 8.20662 11.217 8.20586C9.40788 8.20825 7.67361 8.92818 6.39466 10.2077C5.11572 11.4872 4.39656 13.2218 4.39497 15.0309C4.38822 16.49 4.8568 17.9116 5.72984 19.0807C5.75903 19.1199 5.77827 19.1655 5.78589 19.2138C5.7935 19.2621 5.78927 19.3114 5.77355 19.3577C5.75784 19.404 5.73111 19.4457 5.69567 19.4793C5.66024 19.513 5.61715 19.5375 5.57013 19.5508C4.14296 19.9581 2.88736 20.8193 1.99343 22.004C1.09951 23.1887 0.615936 24.6325 0.615936 26.1166C0.615936 27.6008 1.09951 29.0445 1.99343 30.2293C2.88736 31.414 4.14296 32.2752 5.57013 32.6825C5.61715 32.6958 5.66024 32.7203 5.69567 32.7539C5.73111 32.7876 5.75784 32.8293 5.77355 32.8756C5.78927 32.9218 5.7935 32.9712 5.78589 33.0195C5.77827 33.0677 5.75903 33.1134 5.72984 33.1526C4.8568 34.3217 4.38822 35.7433 4.39497 37.2024C4.39656 39.0115 5.11572 40.7461 6.39466 42.0256C7.67361 43.3051 9.40788 44.025 11.217 44.0274C11.5042 44.0267 11.791 44.0075 12.0757 43.9702H12.1179Z" fill="#104C70"/>
<path id="Vector_2" d="M33.6567 51.3255C31.927 51.3231 30.2687 50.6352 29.0453 49.4123C27.8219 48.1895 27.1332 46.5316 27.13 44.8018V7.43748C27.13 6.58038 27.2988 5.73167 27.6268 4.93981C27.9548 4.14796 28.4356 3.42846 29.0416 2.8224C29.6477 2.21634 30.3672 1.73558 31.1591 1.40758C31.9509 1.07959 32.7996 0.910767 33.6567 0.910767C34.5138 0.910767 35.3625 1.07959 36.1544 1.40758C36.9462 1.73558 37.6657 2.21634 38.2718 2.8224C38.8779 3.42846 39.3586 4.14796 39.6866 4.93981C40.0146 5.73167 40.1834 6.58038 40.1834 7.43748V7.62731C40.3823 7.60923 40.5812 7.60019 40.7861 7.60019C42.755 7.60259 44.6426 8.38601 46.0345 9.77853C47.4265 11.1711 48.2091 13.0589 48.2107 15.0279C48.219 16.473 47.7997 17.8884 47.0054 19.0958C48.464 19.6014 49.7288 20.549 50.6239 21.8068C51.519 23.0645 52 24.5699 52 26.1136C52 27.6574 51.519 29.1628 50.6239 30.4205C49.7288 31.6782 48.464 32.6258 47.0054 33.1315C47.7997 34.3389 48.219 35.7542 48.2107 37.1994C48.2091 39.1683 47.4265 41.0562 46.0345 42.4487C44.6426 43.8412 42.755 44.6247 40.7861 44.6271C40.5842 44.6271 40.3853 44.6271 40.1834 44.5999V44.8018C40.181 46.5318 39.4925 48.1902 38.269 49.4132C37.0454 50.6362 35.3867 51.3239 33.6567 51.3255ZM33.6567 1.51643C32.0863 1.51723 30.5804 2.14121 29.4697 3.25136C28.359 4.36152 27.7343 5.86709 27.7327 7.43748V44.8018C27.7327 46.373 28.3568 47.8798 29.4678 48.9908C30.5787 50.1017 32.0856 50.7259 33.6567 50.7259C35.2279 50.7259 36.7347 50.1017 37.8457 48.9908C38.9566 47.8798 39.5808 46.373 39.5808 44.8018V44.2775C39.5803 44.2341 39.5893 44.1912 39.607 44.1516C39.6247 44.112 39.6508 44.0766 39.6834 44.048C39.716 44.0194 39.7544 43.9982 39.796 43.9858C39.8376 43.9734 39.8813 43.9701 39.9243 43.9762C40.209 44.0136 40.4959 44.0327 40.7831 44.0335C42.5922 44.0311 44.3264 43.3111 45.6054 42.0316C46.8843 40.7521 47.6035 39.0175 47.6051 37.2084C47.6118 35.7493 47.1432 34.3277 46.2702 33.1586C46.241 33.1194 46.2218 33.0738 46.2141 33.0255C46.2065 32.9772 46.2108 32.9279 46.2265 32.8816C46.2422 32.8353 46.2689 32.7936 46.3044 32.76C46.3398 32.7263 46.3829 32.7018 46.4299 32.6885C47.8571 32.2812 49.1127 31.42 50.0066 30.2353C50.9005 29.0506 51.3841 27.6068 51.3841 26.1227C51.3841 24.6385 50.9005 23.1948 50.0066 22.01C49.1127 20.8253 47.8571 19.9641 46.4299 19.5568C46.3829 19.5435 46.3398 19.519 46.3044 19.4854C46.2689 19.4517 46.2422 19.41 46.2265 19.3637C46.2108 19.3175 46.2065 19.2681 46.2141 19.2198C46.2218 19.1716 46.241 19.1259 46.2702 19.0867C47.1432 17.9176 47.6118 16.496 47.6051 15.0369C47.6035 13.2278 46.8843 11.4932 45.6054 10.2137C44.3264 8.9342 42.5922 8.21428 40.7831 8.21188C40.4959 8.21265 40.209 8.23177 39.9243 8.26914C39.8813 8.27521 39.8376 8.27194 39.796 8.25954C39.7544 8.24714 39.716 8.22591 39.6834 8.1973C39.6508 8.16869 39.6247 8.13338 39.607 8.09377C39.5893 8.05416 39.5803 8.01119 39.5808 7.96781V7.43748C39.5776 5.86758 38.9523 4.36293 37.8419 3.25312C36.7316 2.14331 35.2266 1.51882 33.6567 1.51643Z" fill="#104C70"/>
<path id="Vector_3" d="M40.6746 40.285C41.2653 40.285 41.7443 39.8061 41.7443 39.2153C41.7443 38.6245 41.2653 38.1456 40.6746 38.1456C40.0838 38.1456 39.6049 38.6245 39.6049 39.2153C39.6049 39.8061 40.0838 40.285 40.6746 40.285Z" fill="#104C70"/>
<path id="Vector_4" d="M40.6746 40.5832C40.4034 40.5832 40.1383 40.5028 39.9129 40.3522C39.6874 40.2015 39.5117 39.9874 39.4079 39.7369C39.3041 39.4864 39.277 39.2107 39.3299 38.9447C39.3828 38.6788 39.5134 38.4345 39.7051 38.2428C39.8968 38.051 40.1411 37.9204 40.4071 37.8675C40.673 37.8146 40.9487 37.8418 41.1992 37.9456C41.4498 38.0493 41.6639 38.225 41.8145 38.4505C41.9652 38.676 42.0456 38.9411 42.0456 39.2122C42.0456 39.3923 42.0101 39.5705 41.9412 39.7369C41.8723 39.9032 41.7713 40.0544 41.644 40.1817C41.5167 40.309 41.3656 40.41 41.1992 40.4789C41.0329 40.5478 40.8546 40.5832 40.6746 40.5832ZM40.6746 38.4469C40.5225 38.4469 40.3738 38.492 40.2474 38.5766C40.1209 38.6611 40.0225 38.7813 39.9644 38.9219C39.9063 39.0625 39.8913 39.2171 39.9212 39.3662C39.9511 39.5154 40.0245 39.6523 40.1323 39.7596C40.2401 39.867 40.3773 39.9399 40.5265 39.9692C40.6758 39.9985 40.8303 39.9829 40.9707 39.9243C41.111 39.8656 41.2308 39.7667 41.3149 39.6399C41.399 39.5132 41.4435 39.3643 41.4429 39.2122C41.4425 39.1117 41.4224 39.0123 41.3835 38.9196C41.3447 38.8268 41.288 38.7427 41.2166 38.6719C41.1453 38.6011 41.0607 38.5451 40.9677 38.507C40.8747 38.4689 40.7751 38.4495 40.6746 38.4499V38.4469Z" fill="#104C70"/>
<path id="Vector_5" d="M30.8393 39.8812C31.4301 39.8812 31.909 39.4022 31.909 38.8115C31.909 38.2207 31.4301 37.7418 30.8393 37.7418C30.2485 37.7418 29.7696 38.2207 29.7696 38.8115C29.7696 39.4022 30.2485 39.8812 30.8393 39.8812Z" fill="#104C70"/>
<path id="Vector_6" d="M30.8393 40.1795C30.5678 40.1801 30.3023 40.1001 30.0764 39.9497C29.8505 39.7993 29.6743 39.5852 29.5702 39.3345C29.466 39.0839 29.4386 38.808 29.4914 38.5417C29.5442 38.2755 29.6749 38.0309 29.8668 37.839C30.0587 37.6471 30.3033 37.5164 30.5695 37.4636C30.8357 37.4108 31.1117 37.4382 31.3623 37.5424C31.613 37.6465 31.827 37.8227 31.9775 38.0486C32.1279 38.2746 32.2079 38.5401 32.2073 38.8115C32.2065 39.1741 32.0621 39.5216 31.8057 39.7779C31.5493 40.0343 31.2018 40.1787 30.8393 40.1795ZM30.8393 38.0431C30.6872 38.0425 30.5383 38.0871 30.4115 38.1711C30.2848 38.2552 30.1858 38.375 30.1272 38.5153C30.0686 38.6557 30.053 38.8103 30.0823 38.9595C30.1116 39.1088 30.1845 39.246 30.2918 39.3537C30.3992 39.4615 30.5361 39.535 30.6852 39.5649C30.8344 39.5948 30.989 39.5797 31.1296 39.5217C31.2702 39.4636 31.3903 39.3651 31.4749 39.2387C31.5595 39.1123 31.6046 38.9636 31.6046 38.8115C31.6046 38.6082 31.5241 38.4132 31.3806 38.2692C31.2372 38.1252 31.0425 38.0439 30.8393 38.0431Z" fill="#104C70"/>
<path id="Vector_7" d="M15.1011 42.3611C15.6919 42.3611 16.1708 41.8822 16.1708 41.2914C16.1708 40.7006 15.6919 40.2217 15.1011 40.2217C14.5103 40.2217 14.0314 40.7006 14.0314 41.2914C14.0314 41.8822 14.5103 42.3611 15.1011 42.3611Z" fill="#104C70"/>
<path id="Vector_8" d="M15.1011 42.6624C14.8299 42.6624 14.5648 42.582 14.3394 42.4314C14.1139 42.2807 13.9382 42.0666 13.8344 41.8161C13.7306 41.5655 13.7035 41.2899 13.7564 41.0239C13.8093 40.758 13.9399 40.5137 14.1316 40.3219C14.3234 40.1302 14.5676 39.9996 14.8336 39.9467C15.0996 39.8938 15.3752 39.9209 15.6257 40.0247C15.8763 40.1285 16.0904 40.3042 16.241 40.5297C16.3917 40.7551 16.4721 41.0202 16.4721 41.2914C16.4721 41.4714 16.4366 41.6497 16.3677 41.8161C16.2988 41.9824 16.1978 42.1335 16.0705 42.2608C15.9432 42.3882 15.7921 42.4891 15.6257 42.558C15.4594 42.6269 15.2811 42.6624 15.1011 42.6624ZM15.1011 40.526C14.949 40.526 14.8003 40.5712 14.6739 40.6557C14.5474 40.7403 14.449 40.8605 14.3909 41.001C14.3328 41.1416 14.3178 41.2963 14.3477 41.4454C14.3776 41.5945 14.4511 41.7314 14.5588 41.8388C14.6666 41.9461 14.8038 42.0191 14.953 42.0484C15.1023 42.0777 15.2569 42.062 15.3972 42.0034C15.5376 41.9448 15.6574 41.8458 15.7414 41.7191C15.8255 41.5923 15.87 41.4435 15.8695 41.2914C15.8687 41.0881 15.7873 40.8935 15.6433 40.75C15.4993 40.6066 15.3043 40.526 15.1011 40.526Z" fill="#104C70"/>
<path id="Vector_9" d="M9.62897 33.6347C10.2198 33.6347 10.6987 33.1558 10.6987 32.565C10.6987 31.9742 10.2198 31.4953 9.62897 31.4953C9.03819 31.4953 8.55927 31.9742 8.55927 32.565C8.55927 33.1558 9.03819 33.6347 9.62897 33.6347Z" fill="#104C70"/>
<path id="Vector_10" d="M9.62902 33.933C9.35773 33.933 9.09254 33.8526 8.86701 33.7018C8.64148 33.551 8.46575 33.3367 8.36207 33.086C8.25839 32.8353 8.23142 32.5595 8.28456 32.2934C8.33771 32.0274 8.46859 31.7831 8.66063 31.5915C8.85267 31.3999 9.09725 31.2695 9.3634 31.217C9.62955 31.1644 9.90532 31.192 10.1558 31.2962C10.4063 31.4004 10.6202 31.5766 10.7705 31.8025C10.9207 32.0284 11.0007 32.2937 11.0001 32.565C10.9993 32.9281 10.8545 33.2761 10.5974 33.5325C10.3404 33.789 9.99212 33.933 9.62902 33.933ZM9.62902 31.7966C9.47705 31.7966 9.32849 31.8417 9.20213 31.9261C9.07578 32.0106 8.97729 32.1306 8.91913 32.271C8.86097 32.4114 8.84576 32.5659 8.87541 32.7149C8.90505 32.864 8.97824 33.0009 9.0857 33.1083C9.19316 33.2158 9.33007 33.289 9.47912 33.3186C9.62817 33.3483 9.78267 33.3331 9.92307 33.2749C10.0635 33.2168 10.1835 33.1183 10.2679 32.9919C10.3523 32.8656 10.3974 32.717 10.3974 32.565C10.3974 32.4641 10.3775 32.3642 10.3389 32.271C10.3003 32.1778 10.2437 32.093 10.1724 32.0217C10.101 31.9503 10.0163 31.8937 9.92307 31.8551C9.82985 31.8165 9.72993 31.7966 9.62902 31.7966Z" fill="#104C70"/>
<path id="Vector_11" d="M4.4643 26.5837C5.05508 26.5837 5.534 26.1048 5.534 25.514C5.534 24.9232 5.05508 24.4443 4.4643 24.4443C3.87351 24.4443 3.39459 24.9232 3.39459 25.514C3.39459 26.1048 3.87351 26.5837 4.4643 26.5837Z" fill="#104C70"/>
<path id="Vector_12" d="M4.46429 26.882C4.193 26.882 3.9278 26.8015 3.70228 26.6507C3.47675 26.5 3.30102 26.2857 3.19734 26.035C3.09366 25.7843 3.06668 25.5084 3.11983 25.2424C3.17297 24.9764 3.30385 24.7321 3.4959 24.5405C3.68794 24.3488 3.93251 24.2185 4.19867 24.1659C4.46482 24.1134 4.74058 24.141 4.99105 24.2452C5.24152 24.3494 5.45544 24.5256 5.60573 24.7515C5.75602 24.9773 5.83592 25.2427 5.83532 25.514C5.83532 25.6939 5.79984 25.872 5.7309 26.0382C5.66196 26.2044 5.56093 26.3553 5.43357 26.4824C5.30622 26.6095 5.15505 26.7102 4.98873 26.7787C4.82241 26.8473 4.64419 26.8824 4.46429 26.882ZM4.46429 24.7456C4.31232 24.7456 4.16376 24.7907 4.0374 24.8751C3.91104 24.9595 3.81256 25.0796 3.7544 25.22C3.69624 25.3604 3.68103 25.5149 3.71068 25.6639C3.74032 25.813 3.8135 25.9499 3.92096 26.0573C4.02842 26.1648 4.16533 26.238 4.31439 26.2676C4.46344 26.2973 4.61793 26.282 4.75834 26.2239C4.89874 26.1657 5.01875 26.0672 5.10318 25.9409C5.18761 25.8145 5.23267 25.666 5.23267 25.514C5.23267 25.3102 5.15172 25.1148 5.00762 24.9707C4.86352 24.8266 4.66808 24.7456 4.46429 24.7456Z" fill="#104C70"/>
<path id="Vector_13" d="M9.90924 17.0829C10.5 17.0829 10.9789 16.604 10.9789 16.0132C10.9789 15.4224 10.5 14.9435 9.90924 14.9435C9.31846 14.9435 8.83954 15.4224 8.83954 16.0132C8.83954 16.604 9.31846 17.0829 9.90924 17.0829Z" fill="#104C70"/>
<path id="Vector_14" d="M9.9092 17.3812C9.63791 17.3818 9.37254 17.3019 9.14668 17.1516C8.92082 17.0013 8.74462 16.7874 8.64039 16.537C8.53616 16.2865 8.50857 16.0107 8.56113 15.7446C8.6137 15.4784 8.74404 15.2338 8.93566 15.0418C9.12728 14.8497 9.37157 14.7189 9.6376 14.6657C9.90364 14.6126 10.1795 14.6396 10.4302 14.7432C10.6809 14.8469 10.8952 15.0226 11.0459 15.2482C11.1967 15.4737 11.2772 15.7389 11.2772 16.0102C11.2772 16.3733 11.1332 16.7216 10.8767 16.9786C10.6203 17.2356 10.2723 17.3804 9.9092 17.3812ZM9.9092 15.2448C9.75698 15.2442 9.608 15.2889 9.48118 15.3731C9.35436 15.4573 9.25541 15.5772 9.19688 15.7178C9.13835 15.8583 9.12288 16.013 9.15243 16.1624C9.18199 16.3117 9.25523 16.4489 9.36287 16.5565C9.47051 16.6642 9.6077 16.7374 9.75703 16.767C9.90636 16.7965 10.0611 16.781 10.2016 16.7225C10.3422 16.664 10.4621 16.565 10.5463 16.4382C10.6305 16.3114 10.6752 16.1624 10.6746 16.0102C10.673 15.808 10.5917 15.6145 10.4485 15.4718C10.3052 15.3291 10.1114 15.2486 9.9092 15.2478V15.2448Z" fill="#104C70"/>
<path id="Vector_15" d="M15.4717 10.294C16.0625 10.294 16.5414 9.81509 16.5414 9.22431C16.5414 8.63353 16.0625 8.1546 15.4717 8.1546C14.8809 8.1546 14.402 8.63353 14.402 9.22431C14.402 9.81509 14.8809 10.294 15.4717 10.294Z" fill="#104C70"/>
<path id="Vector_16" d="M15.4717 10.5923C15.2003 10.5929 14.9348 10.513 14.7089 10.3625C14.4829 10.2121 14.3067 9.99802 14.2026 9.74737C14.0985 9.49673 14.071 9.22081 14.1239 8.95457C14.1767 8.68834 14.3073 8.44377 14.4992 8.25185C14.6911 8.05992 14.9357 7.92928 15.202 7.87648C15.4682 7.82367 15.7441 7.85108 15.9948 7.95522C16.2454 8.05936 16.4595 8.23556 16.6099 8.46149C16.7603 8.68741 16.8403 8.9529 16.8397 9.22432C16.8389 9.5869 16.6945 9.9344 16.4382 10.1908C16.1818 10.4472 15.8343 10.5915 15.4717 10.5923ZM15.4717 8.45594C15.3196 8.45534 15.1707 8.4999 15.044 8.58397C14.9172 8.66804 14.8183 8.78783 14.7597 8.92818C14.701 9.06853 14.6854 9.22312 14.7147 9.37237C14.744 9.52162 14.817 9.65881 14.9243 9.76657C15.0316 9.87433 15.1685 9.94782 15.3177 9.97771C15.4668 10.0076 15.6215 9.99256 15.762 9.9345C15.9026 9.87643 16.0228 9.77795 16.1074 9.65152C16.1919 9.5251 16.2371 9.37642 16.2371 9.22432C16.2371 9.02106 16.1565 8.82607 16.0131 8.68206C15.8696 8.53804 15.675 8.45674 15.4717 8.45594Z" fill="#104C70"/>
<path id="Vector_17" d="M40.7468 39.1128C40.6849 39.1128 40.6245 39.0937 40.5738 39.0581C40.5231 39.0225 40.4846 38.9722 40.4636 38.9139L37.8963 31.7966H32.2555C32.1756 31.7966 32.0989 31.7649 32.0424 31.7084C31.9859 31.6519 31.9542 31.5752 31.9542 31.4953C31.9542 31.4154 31.9859 31.3387 32.0424 31.2822C32.0989 31.2257 32.1756 31.194 32.2555 31.194H38.1072C38.1692 31.194 38.2296 31.2131 38.2803 31.2487C38.3309 31.2843 38.3694 31.3346 38.3905 31.3928L41.0301 38.709C41.0572 38.7842 41.0534 38.867 41.0195 38.9393C40.9856 39.0116 40.9244 39.0675 40.8493 39.0947C40.8164 39.1066 40.7818 39.1128 40.7468 39.1128Z" fill="#104C70"/>
<path id="Vector_18" d="M32.1802 18.9301H19.9916C19.3875 18.9301 18.8978 19.4198 18.8978 20.0239V32.2125C18.8978 32.8166 19.3875 33.3063 19.9916 33.3063H32.1802C32.7843 33.3063 33.274 32.8166 33.274 32.2125V20.0239C33.274 19.4198 32.7843 18.9301 32.1802 18.9301Z" fill="white"/>
<g id="Group">
<path id="Vector_19" d="M32.1802 33.6076H19.9916C19.8085 33.608 19.6272 33.5723 19.4579 33.5025C19.2887 33.4327 19.1348 33.3302 19.0052 33.2009C18.8757 33.0716 18.7728 32.918 18.7027 32.7489C18.6325 32.5798 18.5964 32.3985 18.5964 32.2155V20.0238C18.5964 19.8408 18.6325 19.6595 18.7027 19.4904C18.7728 19.3213 18.8757 19.1677 19.0052 19.0384C19.1348 18.9091 19.2887 18.8066 19.4579 18.7368C19.6272 18.667 19.8085 18.6313 19.9916 18.6317H32.1802C32.5497 18.6317 32.9041 18.7783 33.1656 19.0393C33.4272 19.3003 33.5745 19.6544 33.5753 20.0238V32.2155C33.5745 32.585 33.4272 32.939 33.1656 33.2C32.9041 33.461 32.5497 33.6076 32.1802 33.6076ZM19.9916 19.2344C19.8876 19.234 19.7847 19.2541 19.6885 19.2936C19.5924 19.3331 19.505 19.3912 19.4314 19.4645C19.3578 19.5379 19.2993 19.625 19.2595 19.721C19.2196 19.817 19.1991 19.9199 19.1991 20.0238V32.2155C19.1991 32.3194 19.2196 32.4223 19.2595 32.5183C19.2993 32.6143 19.3578 32.7014 19.4314 32.7748C19.505 32.8481 19.5924 32.9062 19.6885 32.9457C19.7847 32.9852 19.8876 33.0053 19.9916 33.0049H32.1802C32.2841 33.0053 32.3871 32.9852 32.4832 32.9457C32.5794 32.9062 32.6668 32.8481 32.7404 32.7748C32.814 32.7014 32.8724 32.6143 32.9123 32.5183C32.9522 32.4223 32.9727 32.3194 32.9727 32.2155V20.0238C32.9727 19.9199 32.9522 19.817 32.9123 19.721C32.8724 19.625 32.814 19.5379 32.7404 19.4645C32.6668 19.3912 32.5794 19.3331 32.4832 19.2936C32.3871 19.2541 32.2841 19.234 32.1802 19.2344H19.9916Z" fill="#104C70"/>
<path id="Vector_20" d="M30.1161 21.3677H22.0556C21.6562 21.3677 21.3325 21.6915 21.3325 22.0909V30.1514C21.3325 30.5508 21.6562 30.8746 22.0556 30.8746H30.1161C30.5155 30.8746 30.8393 30.5508 30.8393 30.1514V22.0909C30.8393 21.6915 30.5155 21.3677 30.1161 21.3677Z" fill="#104C70"/>
<path id="Vector_21" d="M30.1161 31.1729H22.0556C21.9211 31.1729 21.7879 31.1464 21.6636 31.0949C21.5393 31.0434 21.4263 30.9679 21.3312 30.8728C21.2361 30.7777 21.1606 30.6647 21.1091 30.5404C21.0576 30.4161 21.0311 30.2829 21.0311 30.1484V22.0909C21.0311 21.9564 21.0576 21.8232 21.1091 21.6989C21.1606 21.5746 21.2361 21.4616 21.3312 21.3665C21.4263 21.2713 21.5393 21.1959 21.6636 21.1444C21.7879 21.0929 21.9211 21.0664 22.0556 21.0664H30.1161C30.3878 21.0664 30.6484 21.1743 30.8405 21.3665C31.0327 21.5586 31.1406 21.8192 31.1406 22.0909V30.1484C31.1406 30.4201 31.0327 30.6807 30.8405 30.8728C30.6484 31.0649 30.3878 31.1729 30.1161 31.1729ZM22.0556 21.6691C21.9438 21.6691 21.8365 21.7135 21.7573 21.7926C21.6782 21.8717 21.6338 21.979 21.6338 22.0909V30.1484C21.6338 30.2038 21.6447 30.2586 21.6659 30.3098C21.6871 30.361 21.7182 30.4075 21.7573 30.4467C21.7965 30.4858 21.843 30.5169 21.8942 30.5381C21.9454 30.5593 22.0002 30.5702 22.0556 30.5702H30.1161C30.1715 30.5702 30.2263 30.5593 30.2775 30.5381C30.3287 30.5169 30.3752 30.4858 30.4144 30.4467C30.4536 30.4075 30.4846 30.361 30.5058 30.3098C30.527 30.2586 30.5379 30.2038 30.5379 30.1484V22.0909C30.5379 21.979 30.4935 21.8717 30.4144 21.7926C30.3353 21.7135 30.228 21.6691 30.1161 21.6691H22.0556Z" fill="#104C70"/>
<path id="Vector_22" d="M38.8244 21.9704H33.4789C33.399 21.9704 33.3223 21.9386 33.2658 21.8821C33.2093 21.8256 33.1776 21.749 33.1776 21.669C33.1776 21.5891 33.2093 21.5125 33.2658 21.456C33.3223 21.3995 33.399 21.3677 33.4789 21.3677H38.6556L41.0482 17.4505C41.0899 17.3828 41.1568 17.3343 41.2341 17.3157C41.3114 17.2971 41.393 17.3098 41.461 17.351C41.4949 17.3717 41.5244 17.3989 41.5478 17.431C41.5712 17.4632 41.588 17.4996 41.5972 17.5383C41.6065 17.5769 41.608 17.617 41.6017 17.6562C41.5953 17.6955 41.5813 17.7331 41.5604 17.7669L39.0805 21.8378C39.0523 21.8795 39.0141 21.9135 38.9693 21.9367C38.9246 21.9599 38.8748 21.9714 38.8244 21.9704Z" fill="#104C70"/>
<path id="Vector_23" d="M41.8437 18.014C42.4345 18.014 42.9134 17.5351 42.9134 16.9443C42.9134 16.3535 42.4345 15.8746 41.8437 15.8746C41.2529 15.8746 40.774 16.3535 40.774 16.9443C40.774 17.5351 41.2529 18.014 41.8437 18.014Z" fill="#104C70"/>
<path id="Vector_24" d="M41.8437 18.3153C41.5725 18.3153 41.3074 18.2349 41.082 18.0842C40.8565 17.9336 40.6808 17.7195 40.577 17.4689C40.4732 17.2184 40.4461 16.9428 40.499 16.6768C40.5519 16.4108 40.6825 16.1666 40.8742 15.9748C41.066 15.7831 41.3103 15.6525 41.5762 15.5996C41.8422 15.5467 42.1178 15.5738 42.3684 15.6776C42.6189 15.7814 42.833 15.9571 42.9837 16.1826C43.1343 16.408 43.2147 16.6731 43.2147 16.9443C43.2147 17.3079 43.0703 17.6566 42.8132 17.9137C42.556 18.1709 42.2073 18.3153 41.8437 18.3153ZM41.8437 16.1789C41.6916 16.1789 41.5429 16.2241 41.4165 16.3086C41.2901 16.3932 41.1916 16.5134 41.1335 16.6539C41.0754 16.7945 41.0604 16.9492 41.0903 17.0983C41.1202 17.2474 41.1937 17.3843 41.3014 17.4917C41.4092 17.599 41.5464 17.672 41.6956 17.7013C41.8449 17.7306 41.9995 17.7149 42.1398 17.6563C42.2802 17.5977 42.4 17.4987 42.484 17.372C42.5681 17.2452 42.6127 17.0964 42.6121 16.9443C42.6125 16.8433 42.5929 16.7432 42.5544 16.6498C42.5159 16.5564 42.4593 16.4715 42.3879 16.4001C42.3165 16.3286 42.2316 16.272 42.1382 16.2336C42.0448 16.1951 41.9447 16.1755 41.8437 16.1759V16.1789Z" fill="#104C70"/>
<path id="Vector_25" d="M36.5012 11.3607C37.0919 11.3607 37.5709 10.8818 37.5709 10.291C37.5709 9.70024 37.0919 9.22131 36.5012 9.22131C35.9104 9.22131 35.4315 9.70024 35.4315 10.291C35.4315 10.8818 35.9104 11.3607 36.5012 11.3607Z" fill="#104C70"/>
<path id="Vector_26" d="M36.5012 11.656C36.23 11.656 35.9649 11.5756 35.7395 11.4249C35.514 11.2743 35.3383 11.0602 35.2345 10.8096C35.1307 10.5591 35.1036 10.2835 35.1565 10.0175C35.2094 9.75154 35.34 9.50725 35.5317 9.31551C35.7234 9.12377 35.9677 8.99319 36.2337 8.94029C36.4996 8.88738 36.7753 8.91453 37.0258 9.0183C37.2764 9.12207 37.4905 9.2978 37.6411 9.52327C37.7918 9.74873 37.8722 10.0138 37.8722 10.285C37.8722 10.6486 37.7277 10.9973 37.4706 11.2544C37.2135 11.5116 36.8648 11.656 36.5012 11.656ZM36.5012 9.51961C36.3491 9.51961 36.2004 9.56475 36.074 9.64931C35.9475 9.73388 35.8491 9.85406 35.791 9.99464C35.7329 10.1352 35.7179 10.2899 35.7478 10.439C35.7777 10.5881 35.8511 10.725 35.9589 10.8324C36.0667 10.9397 36.2039 11.0127 36.3531 11.042C36.5024 11.0713 36.657 11.0556 36.7973 10.997C36.9377 10.9384 37.0574 10.8394 37.1415 10.7127C37.2256 10.5859 37.2701 10.4371 37.2695 10.285C37.2672 10.0828 37.1852 9.88963 37.0413 9.74748C36.8975 9.60533 36.7034 9.52562 36.5012 9.52563V9.51961Z" fill="#104C70"/>
<path id="Vector_27" d="M42.8983 29.8922C43.4891 29.8922 43.968 29.4133 43.968 28.8225C43.968 28.2317 43.4891 27.7528 42.8983 27.7528C42.3075 27.7528 41.8286 28.2317 41.8286 28.8225C41.8286 29.4133 42.3075 29.8922 42.8983 29.8922Z" fill="#104C70"/>
<path id="Vector_28" d="M42.8983 30.1935C42.6269 30.1941 42.3614 30.1142 42.1355 29.9637C41.9096 29.8133 41.7334 29.5992 41.6292 29.3486C41.5251 29.0979 41.4977 28.822 41.5505 28.5558C41.6033 28.2895 41.7339 28.045 41.9259 27.853C42.1178 27.6611 42.3624 27.5305 42.6286 27.4777C42.8948 27.4249 43.1707 27.4523 43.4214 27.5564C43.672 27.6606 43.8861 27.8368 44.0365 28.0627C44.187 28.2886 44.2669 28.5541 44.2663 28.8255C44.2656 29.1881 44.1212 29.5356 43.8648 29.792C43.6084 30.0484 43.2609 30.1927 42.8983 30.1935ZM42.8983 28.0571C42.7462 28.0565 42.5974 28.1011 42.4706 28.1852C42.3439 28.2692 42.2449 28.389 42.1863 28.5294C42.1277 28.6697 42.112 28.8243 42.1413 28.9736C42.1706 29.1228 42.2436 29.26 42.3509 29.3678C42.4583 29.4755 42.5952 29.549 42.7443 29.5789C42.8934 29.6088 43.0481 29.5938 43.1887 29.5357C43.3292 29.4776 43.4494 29.3791 43.534 29.2527C43.6186 29.1263 43.6637 28.9776 43.6637 28.8255C43.6637 28.6222 43.5832 28.4273 43.4397 28.2833C43.2963 28.1392 43.1016 28.0579 42.8983 28.0571Z" fill="#104C70"/>
<path id="Vector_29" d="M45.0347 25.6887C45.6255 25.6887 46.1044 25.2098 46.1044 24.619C46.1044 24.0282 45.6255 23.5493 45.0347 23.5493C44.444 23.5493 43.965 24.0282 43.965 24.619C43.965 25.2098 44.444 25.6887 45.0347 25.6887Z" fill="#104C70"/>
<path id="Vector_30" d="M45.0348 25.99C44.7635 25.9906 44.4981 25.9107 44.2722 25.7605C44.0464 25.6102 43.8702 25.3962 43.7659 25.1458C43.6617 24.8953 43.6341 24.6195 43.6867 24.3534C43.7392 24.0872 43.8696 23.8427 44.0612 23.6506C44.2528 23.4586 44.4971 23.3277 44.7632 23.2746C45.0292 23.2214 45.305 23.2484 45.5557 23.3521C45.8064 23.4557 46.0207 23.6315 46.1715 23.857C46.3223 24.0825 46.4028 24.3477 46.4028 24.619C46.4028 24.9821 46.2587 25.3304 46.0023 25.5874C45.7458 25.8444 45.3979 25.9892 45.0348 25.99ZM45.0348 23.8536C44.8825 23.8531 44.7336 23.8977 44.6067 23.9819C44.4799 24.0661 44.381 24.1861 44.3224 24.3266C44.2639 24.4671 44.2484 24.6219 44.278 24.7712C44.3075 24.9205 44.3808 25.0577 44.4884 25.1653C44.5961 25.273 44.7332 25.3462 44.8826 25.3758C45.0319 25.4053 45.1867 25.3899 45.3272 25.3313C45.4677 25.2728 45.5877 25.1739 45.6719 25.047C45.7561 24.9202 45.8007 24.7712 45.8001 24.619C45.7993 24.4163 45.7184 24.2221 45.5751 24.0787C45.4317 23.9353 45.2375 23.8544 45.0348 23.8536Z" fill="#104C70"/>
<path id="Vector_31" d="M42.8983 29.1329H33.274C33.1941 29.1329 33.1174 29.1011 33.0609 29.0446C33.0044 28.9881 32.9727 28.9115 32.9727 28.8315C32.9727 28.7516 33.0044 28.675 33.0609 28.6185C33.1174 28.562 33.1941 28.5302 33.274 28.5302H42.8983C42.9782 28.5302 43.0549 28.562 43.1114 28.6185C43.1679 28.675 43.1996 28.7516 43.1996 28.8315C43.1996 28.9115 43.1679 28.9881 43.1114 29.0446C43.0549 29.1011 42.9782 29.1329 42.8983 29.1329Z" fill="#104C70"/>
<path id="Vector_32" d="M30.8393 19.2343C30.7594 19.2343 30.6827 19.2026 30.6262 19.1461C30.5697 19.0896 30.538 19.0129 30.538 18.933V14.1118C30.5379 14.0606 30.5508 14.0102 30.5756 13.9654C30.6004 13.9206 30.6362 13.8828 30.6796 13.8557L36.3445 10.3784C36.4121 10.3368 36.4934 10.3236 36.5707 10.3417C36.648 10.3598 36.7151 10.4076 36.7573 10.4748C36.7782 10.5086 36.7922 10.5462 36.7986 10.5854C36.8049 10.6246 36.8034 10.6647 36.7941 10.7034C36.7849 10.742 36.7681 10.7785 36.7447 10.8106C36.7213 10.8427 36.6918 10.8699 36.6579 10.8906L31.1406 14.2775V18.933C31.1406 19.0129 31.1089 19.0896 31.0524 19.1461C30.9958 19.2026 30.9192 19.2343 30.8393 19.2343Z" fill="#104C70"/>
<path id="Vector_33" d="M21.3325 19.2343C21.2781 19.2334 21.225 19.2178 21.1788 19.1891L15.4536 16.1337C15.4055 16.1081 15.3653 16.0699 15.3371 16.0232C15.309 15.9765 15.2941 15.923 15.2939 15.8685V9.2243C15.2939 9.14438 15.3257 9.06774 15.3822 9.01123C15.4387 8.95472 15.5154 8.92297 15.5953 8.92297C15.6752 8.92297 15.7518 8.95472 15.8083 9.01123C15.8648 9.06774 15.8966 9.14438 15.8966 9.2243V15.6968L21.4802 18.6648C21.5407 18.6958 21.5889 18.7464 21.6171 18.8083C21.6453 18.8702 21.6517 18.9398 21.6352 19.0058C21.6188 19.0717 21.5806 19.1302 21.5267 19.1717C21.4728 19.2132 21.4065 19.2353 21.3385 19.2343H21.3325Z" fill="#104C70"/>
<path id="Vector_34" d="M16.3094 22.0216C14.9594 22.0216 12.9375 22.0065 9.90319 21.9704C9.82328 21.9704 9.74663 21.9386 9.69012 21.8821C9.63361 21.8256 9.60187 21.7489 9.60187 21.669V16.2452C9.60187 16.1653 9.63361 16.0886 9.69012 16.0321C9.74663 15.9756 9.82328 15.9438 9.90319 15.9438C9.98311 15.9438 10.0598 15.9756 10.1163 16.0321C10.1728 16.0886 10.2045 16.1653 10.2045 16.2452V21.3677C13.5191 21.4069 18.28 21.437 18.7893 21.3677C18.8226 21.3581 18.8571 21.353 18.8917 21.3526C18.9513 21.3529 19.0095 21.3708 19.0589 21.4041C19.1083 21.4374 19.1468 21.4847 19.1693 21.5398C19.1919 21.595 19.1976 21.6556 19.1858 21.714C19.1739 21.7724 19.145 21.8259 19.1027 21.8679C19.0303 21.9613 18.9701 22.0216 16.3094 22.0216Z" fill="#104C70"/>
<path id="Vector_35" d="M18.4669 25.8183H4.81079C4.73087 25.8183 4.65423 25.7865 4.59772 25.73C4.54121 25.6735 4.50946 25.5969 4.50946 25.517C4.50946 25.437 4.54121 25.3604 4.59772 25.3039C4.65423 25.2474 4.73087 25.2156 4.81079 25.2156H18.4669C18.5468 25.2156 18.6234 25.2474 18.6799 25.3039C18.7364 25.3604 18.7682 25.437 18.7682 25.517C18.7682 25.5969 18.7364 25.6735 18.6799 25.73C18.6234 25.7865 18.5468 25.8183 18.4669 25.8183Z" fill="#104C70"/>
<path id="Vector_36" d="M44.5677 25.2156H33.274C33.1941 25.2156 33.1174 25.1839 33.0609 25.1274C33.0044 25.0709 32.9727 24.9942 32.9727 24.9143C32.9727 24.8344 33.0044 24.7577 33.0609 24.7012C33.1174 24.6447 33.1941 24.613 33.274 24.613H44.5677C44.6476 24.613 44.7242 24.6447 44.7807 24.7012C44.8372 24.7577 44.869 24.8344 44.869 24.9143C44.869 24.9942 44.8372 25.0709 44.7807 25.1274C44.7242 25.1839 44.6476 25.2156 44.5677 25.2156Z" fill="#104C70"/>
<path id="Vector_37" d="M9.90621 32.5258C9.84204 32.5251 9.77976 32.504 9.72843 32.4655C9.69654 32.442 9.6696 32.4124 9.64916 32.3785C9.62872 32.3445 9.61517 32.3069 9.60929 32.2677C9.60341 32.2285 9.60532 32.1886 9.61491 32.1501C9.62449 32.1117 9.64156 32.0755 9.66515 32.0437L12.1993 28.6447C12.2255 28.6096 12.259 28.5807 12.2975 28.5599C12.336 28.5391 12.3786 28.5269 12.4223 28.5242C16.5263 28.256 18.7682 28.2711 19.0846 28.5664C19.1204 28.5994 19.1491 28.6395 19.1688 28.6841C19.1885 28.7286 19.1988 28.7768 19.1991 28.8255C19.1992 28.8876 19.1802 28.9481 19.1446 28.999C19.109 29.0498 19.0586 29.0884 19.0002 29.1095C18.9419 29.1306 18.8784 29.1331 18.8186 29.1168C18.7587 29.1005 18.7053 29.0661 18.6657 29.0184C18.1505 28.8677 15.2517 28.946 12.6001 29.1148L10.1503 32.4053C10.1219 32.4431 10.085 32.4737 10.0426 32.4947C10.0002 32.5156 9.95349 32.5263 9.90621 32.5258Z" fill="#104C70"/>
<path id="Vector_38" d="M14.8509 41.2371C14.771 41.2371 14.6944 41.2054 14.6379 41.1489C14.5814 41.0924 14.5496 41.0157 14.5496 40.9358V31.4953C14.5496 31.4154 14.5814 31.3387 14.6379 31.2822C14.6944 31.2257 14.771 31.194 14.8509 31.194H18.9128C18.9927 31.194 19.0694 31.2257 19.1259 31.2822C19.1824 31.3387 19.2141 31.4154 19.2141 31.4953C19.2141 31.5752 19.1824 31.6519 19.1259 31.7084C19.0694 31.7649 18.9927 31.7966 18.9128 31.7966H15.1523V40.9358C15.1523 41.0157 15.1205 41.0924 15.064 41.1489C15.0075 41.2054 14.9309 41.2371 14.8509 41.2371Z" fill="#104C70"/>
<path id="Vector_39" d="M30.8393 37.9045C30.7594 37.9045 30.6827 37.8727 30.6262 37.8162C30.5697 37.7597 30.538 37.6831 30.538 37.6032V33.3063C30.538 33.2264 30.5697 33.1497 30.6262 33.0932C30.6827 33.0367 30.7594 33.0049 30.8393 33.0049C30.9192 33.0049 30.9958 33.0367 31.0524 33.0932C31.1089 33.1497 31.1406 33.2264 31.1406 33.3063V37.6032C31.1406 37.6831 31.1089 37.7597 31.0524 37.8162C30.9958 37.8727 30.9192 37.9045 30.8393 37.9045Z" fill="#104C70"/>
</g>
<path id="Vector_40" d="M25.4938 23.7272H22.9235C22.8435 23.7272 22.7669 23.6954 22.7104 23.6389C22.6539 23.5824 22.6221 23.5058 22.6221 23.4258C22.6221 23.3459 22.6539 23.2693 22.7104 23.2128C22.7669 23.1563 22.8435 23.1245 22.9235 23.1245H25.4938C25.5737 23.1245 25.6503 23.1563 25.7068 23.2128C25.7633 23.2693 25.7951 23.3459 25.7951 23.4258C25.7951 23.5058 25.7633 23.5824 25.7068 23.6389C25.6503 23.6954 25.5737 23.7272 25.4938 23.7272Z" fill="white"/>
</g>
</svg>
